<?xml version="1.0" encoding="UTF-8"?>
<svg version="1.1" xmlns="http://www.w3.org/2000/svg" width="3920" height="1900">
<path d="M0 0 C0.84897006 -0.00438225 1.69794012 -0.00876451 2.57263654 -0.01327956 C5.42826362 -0.0266746 8.28385983 -0.03284806 11.13951111 -0.03897095 C13.18281697 -0.04687148 15.22612144 -0.0551404 17.26942444 -0.06375122 C23.99034796 -0.08998133 30.71127773 -0.10528186 37.43223572 -0.11953735 C39.74594565 -0.12489701 42.05965555 -0.13027452 44.3733654 -0.13566971 C53.99923824 -0.15730167 63.6251094 -0.17603752 73.2510004 -0.1872921 C87.04391869 -0.2035247 100.83655496 -0.23668243 114.62936693 -0.29369295 C124.32801729 -0.33241275 134.02659228 -0.35192734 143.7253179 -0.35721266 C149.51718235 -0.36086386 155.30874608 -0.37286065 161.10052681 -0.4053154 C166.55315046 -0.43543084 172.00529199 -0.44169521 177.45798111 -0.42993164 C179.45498516 -0.42971119 181.4520118 -0.43799285 183.44893837 -0.45558548 C197.04454589 -0.56880188 206.03362906 0.60119806 216.59239197 9.8218689 C217.77207947 11.15390015 217.77207947 11.15390015 217.77207947 13.15390015 C218.43207947 13.15390015 219.09207947 13.15390015 219.77207947 13.15390015 C220.97129822 14.3765564 220.97129822 14.3765564 222.45957947 16.21640015 C238.36280034 35.32737019 238.36280034 35.32737019 260.60212368 44.43095362 C261.58852921 44.44364106 262.57493474 44.4563285 263.59123135 44.46940041 C265.3121833 44.49819011 265.3121833 44.49819011 267.06790197 44.52756143 C268.32052819 44.53844662 269.57315442 44.54933182 270.86373901 44.56054688 C272.21787406 44.57885171 273.57199933 44.59789139 274.92611468 44.61759925 C278.65554299 44.66890872 282.38500406 44.70706688 286.11461468 44.74232385 C288.51564532 44.76596328 290.91661084 44.79314248 293.31759059 44.82146192 C335.26687817 45.31457698 377.21929307 45.32332913 419.17091054 45.35569813 C431.80986297 45.36600613 444.44879819 45.38607308 457.08773804 45.40625 C461.83573621 45.41371796 466.58373447 45.42113282 471.33173275 45.42853737 C472.51606862 45.43038793 473.70040448 45.4322385 474.92062931 45.43414515 C488.2323574 45.45483779 501.54408771 45.47379365 514.8558197 45.49179077 C516.0655072 45.49342895 517.27519469 45.49506714 518.52153938 45.49675496 C538.30876055 45.52328187 558.09598355 45.54181508 577.8832152 45.55838268 C598.34333129 45.57578806 618.80341086 45.60457807 639.26349777 45.64327204 C651.81852513 45.66659944 664.37349315 45.68065997 676.92854237 45.68259968 C685.48361524 45.68470505 694.03862834 45.69760023 702.59367437 45.719079 C707.52268132 45.73111352 712.45156956 45.73825453 717.38059044 45.73236656 C721.89013848 45.72707524 726.39944399 45.73553295 730.90895151 45.75492294 C732.53879249 45.75949937 734.16865717 45.75902677 735.79849333 45.75297455 C746.94621822 45.7152685 755.36973328 45.94251638 763.77207947 54.15390015 C768.05242925 59.93815661 768.92007729 64.03322781 768.90909386 71.07512188 C768.91174568 71.89504788 768.91439751 72.71497388 768.9171297 73.55974612 C768.92484177 76.33094422 768.9253826 79.10209814 768.92597961 81.87330627 C768.92999297 83.87072295 768.93443098 85.86813881 768.93925917 87.86555368 C768.95124451 93.37309343 768.95687765 98.88062441 768.96144032 104.38817465 C768.96738894 110.32085155 768.97900057 116.25351793 768.98973083 122.18618774 C769.01311077 135.84475015 769.027664 149.50331674 769.03996025 163.16189263 C769.04421447 167.88698979 769.04878018 172.61208656 769.05354357 177.33718324 C769.0788026 202.45619851 769.1008526 227.57521443 769.11327171 252.69423962 C769.11619308 258.51453339 769.11916059 264.33482713 769.12217712 270.15512085 C769.12254803 270.87822482 769.12291894 271.6013288 769.12330109 272.34634502 C769.13545799 295.79379197 769.16640431 319.24116388 769.20809865 342.68857559 C769.25087786 366.79000558 769.27751162 390.89139595 769.28274643 414.99286494 C769.28348688 418.39638482 769.28439757 421.79990464 769.28540421 425.20342445 C769.28559482 425.87327355 769.28578543 426.54312265 769.28598183 427.23327021 C769.28949644 438.01670268 769.30979901 448.80004122 769.33620084 459.58343918 C769.36233591 470.42124767 769.36966233 481.25894235 769.35909955 492.09677746 C769.35390228 497.9691511 769.35686938 503.8412258 769.38156509 509.71355629 C769.40397986 515.08826896 769.40337803 520.46246658 769.38436122 525.8371878 C769.38155032 527.78272588 769.38721993 529.72829831 769.40217416 531.67378094 C769.42125579 534.31763938 769.40950865 536.95965654 769.39011192 539.60347271 C769.40938575 540.73782354 769.40938575 540.73782354 769.42904896 541.89509055 C769.33529693 547.70665698 767.3533506 551.61306919 763.77207947 556.15390015 C761.42051697 558.2124939 761.42051697 558.2124939 759.14707947 559.59140015 C758.39168884 560.06448608 757.63629822 560.53757202 756.85801697 561.0249939 C753.29036386 562.95580241 750.49777908 563.27960283 746.50989896 563.28270131 C745.41007614 563.28597351 744.31025332 563.2892457 743.17710254 563.29261705 C741.35377439 563.29039162 741.35377439 563.29039162 739.49361134 563.28812122 C738.20262908 563.29047345 736.91164682 563.29282568 735.58154389 563.29524919 C731.97480257 563.3016681 728.36808347 563.30180932 724.76133753 563.30097178 C720.84623737 563.30114091 716.93114526 563.30704285 713.01604909 563.31221265 C705.24043133 563.32155331 697.46481927 563.32546315 689.6891966 563.32773161 C680.37990801 563.33068985 671.07062701 563.339385 661.7613424 563.34814589 C639.25846771 563.36900622 616.7555917 563.37946235 594.25270959 563.3882755 C583.61178644 563.39247951 572.97086384 563.39770181 562.32994117 563.40296003 C525.92012592 563.42085106 489.51031051 563.43584829 453.10049152 563.44328022 C450.81398936 563.44375498 448.52748721 563.44423087 446.24098505 563.44470788 C444.54010084 563.44506245 444.54010084 563.44506245 442.80485534 563.44542417 C437.05963643 563.4466254 431.31441752 563.44784084 425.56919861 563.44906616 C424.42903352 563.44930631 423.28886844 563.44954646 422.11415289 563.44979389 C385.13472252 563.45768947 348.1553242 563.48112622 311.17590782 563.51362211 C272.09858878 563.54789899 233.0212885 563.56762935 193.94395417 563.57092446 C189.65641446 563.57134202 185.36887476 563.57182158 181.08133507 563.57234764 C180.02558699 563.57247083 178.9698389 563.57259402 177.88209846 563.57272095 C160.87252935 563.57505559 143.86299739 563.5907302 126.85344154 563.61118949 C109.76489283 563.63141813 92.67638887 563.63693883 75.5878304 563.62741885 C65.42921788 563.62219242 55.27075402 563.62813513 45.11216282 563.64995352 C38.33061624 563.66342099 31.54917247 563.66242064 24.76762496 563.64955157 C20.90084491 563.64262784 17.03434989 563.64207722 13.16759483 563.65911166 C9.00476205 563.67730139 4.84259569 563.66464466 0.6797533 563.64888477 C-0.52409296 563.65910698 -1.72793923 563.66932919 -2.96826568 563.67986116 C-9.88813837 563.62234551 -14.31254654 562.79795118 -20.22792053 559.15390015 C-21.11479553 558.61765015 -22.00167053 558.08140015 -22.91542053 557.52890015 C-32.11432553 548.0813761 -30.93188764 536.53681537 -30.85610962 524.23947144 C-30.86115719 522.0889408 -30.86838764 519.93841438 -30.87760776 517.78789759 C-30.89652666 511.8894355 -30.88429793 505.99138834 -30.86688483 500.09293675 C-30.85351214 493.72746806 -30.86894761 487.36206011 -30.88070679 480.99659729 C-30.8980263 469.25125539 -30.89268467 457.50606276 -30.87572003 445.76072411 C-30.86014447 434.90969948 -30.85430197 424.05872267 -30.85806084 413.20768738 C-30.85829764 412.48753935 -30.85853444 411.76739132 -30.85877841 411.02542062 C-30.85975336 408.10200661 -30.86077418 405.17859262 -30.86186352 402.25517864 C-30.87194356 374.83878531 -30.8536903 347.42247595 -30.82214316 320.00610236 C-30.79428309 295.65543623 -30.78931927 271.30486996 -30.80433655 246.95419312 C-30.80815908 240.7184576 -30.8119539 234.48272207 -30.81550694 228.24698639 C-30.81594475 227.47926136 -30.81638256 226.71153632 -30.81683365 225.92054689 C-30.82807673 205.56511182 -30.82072212 185.20968407 -30.80762619 164.85425138 C-30.80623764 162.66362748 -30.80485693 160.47300358 -30.80348777 158.28237967 C-30.80257839 156.82921785 -30.80165572 155.37605603 -30.80071966 153.92289423 C-30.79392753 143.07946082 -30.79658084 132.23605627 -30.80366707 121.3926239 C-30.81163757 109.06147676 -30.80465799 96.73044805 -30.77949203 84.39932072 C-30.76699043 78.10748089 -30.7608587 71.81580821 -30.77203369 65.52396202 C-30.78207092 59.76396338 -30.77362691 54.00429817 -30.75045251 48.24434012 C-30.74529131 46.16103502 -30.74685846 44.07770006 -30.75584716 41.99440795 C-30.80810512 28.78330339 -30.67420898 18.03529345 -21.16542053 7.91171265 C-14.58481325 1.94140362 -8.80345238 0.00549363 0 0 Z " fill="#FED36E" transform="translate(402.22792053222656,698.8460998535156)"/>
<path d="M0 0 C0.97195312 0.51949219 1.94390625 1.03898438 2.9453125 1.57421875 C15.97572111 9.11514035 26.08882937 20.76620126 33 34 C33.47824219 34.90105469 33.95648437 35.80210937 34.44921875 36.73046875 C40.93208552 49.91035104 43 63.45384069 43 78 C18.25 78 -6.5 78 -32 78 C-32.99 74.04 -33.98 70.08 -35 66 C-39.47706099 57.48266445 -44.74649703 53.40659589 -53.6796875 49.96875 C-66.94077348 46.0014445 -84.12174946 46.20614312 -96.65625 52.2890625 C-102.99627719 56.13836472 -105.99578126 60.12658485 -107.875 67.375 C-108.08464294 73.45464519 -107.22795664 78.12194867 -103.875 83.25 C-89.8731371 96.64308625 -67.26222784 98.61728137 -49.11181641 102.64013672 C-24.2108913 108.19306539 -1.63612144 115.70392753 19 131 C19.77859375 131.54011719 20.5571875 132.08023438 21.359375 132.63671875 C21.90078125 133.08660156 22.4421875 133.53648437 23 134 C23 134.66 23 135.32 23 136 C23.99 136.33 24.98 136.66 26 137 C36.91098633 147.88679345 42.92787902 162.16009356 46 177 C46.28810547 178.37865234 46.28810547 178.37865234 46.58203125 179.78515625 C49.76304053 204.25217157 44.7551207 227.35283794 30.16796875 247.2421875 C12.17873815 270.12578534 -17.12590932 279.5318643 -45 283 C-81.68607612 287.24166019 -127.77649157 284.89430466 -158.72265625 261.984375 C-161.18340364 260.02737413 -163.59628168 258.02634275 -166 256 C-167.21623047 255.08347656 -167.21623047 255.08347656 -168.45703125 254.1484375 C-186.2196176 239.14164412 -194.75923427 214.40765728 -197 192 C-197 187.38 -197 182.76 -197 178 C-172.58 178 -148.16 178 -123 178 C-121.68 183.28 -120.36 188.56 -119 194 C-117.38186804 197.23626391 -115.90751661 200.0154502 -114 203 C-113.70351562 203.69609375 -113.40703125 204.3921875 -113.1015625 205.109375 C-111.68778592 207.53585679 -110.57667043 207.91138967 -108 209 C-106.96488281 209.5465625 -105.92976563 210.093125 -104.86328125 210.65625 C-88.93583858 218.99567147 -71.67364422 221.17294377 -54 217 C-46.08139906 214.35658469 -39.00619729 210.58315915 -35 203 C-32.81948948 196.94177747 -32.5819444 191.99423257 -35 186 C-39.23244386 177.18240862 -49.18178896 173.46687226 -57.91796875 170.2734375 C-69.94689728 166.35049515 -82.53406148 163.97047053 -94.87890625 161.2734375 C-126.33790206 154.38522806 -159.99528697 145.75787633 -178.8125 117.125 C-182.45743268 111.36230647 -185.11518907 105.57589593 -187 99 C-187.31710938 97.94039062 -187.31710938 97.94039062 -187.640625 96.859375 C-193.48197897 75.66360488 -189.97953308 52.271184 -179.44140625 33.17578125 C-175.36113756 26.41930861 -170.52654147 20.61788926 -165 15 C-163.87658203 13.85724609 -163.87658203 13.85724609 -162.73046875 12.69140625 C-121.80360296 -26.47078539 -47.19395028 -26.24411456 0 0 Z " fill="#000000" transform="translate(3561,879)"/>
<path d="M0 0 C0.85078125 0.68707031 1.7015625 1.37414062 2.578125 2.08203125 C20.47383601 17.31534354 29.96985184 38.84028346 32 62 C32 64.64 32 67.28 32 70 C7.25 70 -17.5 70 -43 70 C-44.32 65.38 -45.64 60.76 -47 56 C-53.4130869 47.08180102 -60.07820654 42.71400802 -70.81640625 40.390625 C-84.95322828 38.65604561 -99.7381911 39.09407348 -112 47 C-116.84334728 51.20815419 -118.7298538 56.08242104 -119.3125 62.375 C-118.7952725 68.37483904 -117.46417679 73.02381145 -112.9375 77.1875 C-103.11498739 84.7813753 -91.30368068 87.56348789 -79.4375 90.3125 C-77.59893747 90.74600527 -75.76039677 91.17960314 -73.921875 91.61328125 C-70.89969608 92.32214357 -67.8769897 93.02861459 -64.85351562 93.73193359 C-37.47852218 100.10972462 -10.66536569 107.05659876 11 126 C12.03060547 126.88751953 12.03060547 126.88751953 13.08203125 127.79296875 C27.96182283 141.55750968 35.24198458 161.50122432 36.28515625 181.421875 C37.01618133 205.3974165 30.36528843 227.21786607 13.88671875 245.140625 C-12.15433284 270.80427004 -50.51234504 276.40385285 -85.51953125 276.30249023 C-120.76856426 275.77148252 -156.32766132 268.24588498 -182.72265625 243.44140625 C-202.4410616 222.93060748 -208 197.75685719 -208 170 C-183.58 170 -159.16 170 -134 170 C-133.01 174.95 -132.02 179.9 -131 185 C-125.7931499 195.9477361 -119.16295942 202.68099452 -107.80078125 207.30078125 C-91.22325191 212.59557866 -72.6883609 212.69821775 -56.671875 205.55859375 C-51.36643639 202.46375456 -47.29619228 197.71378078 -45 192 C-44.26256898 185.66000864 -44.55650143 180.50959771 -48 175 C-48.33 174.01 -48.66 173.02 -49 172 C-50.75932875 170.93660609 -50.75932875 170.93660609 -53 170 C-53.88429688 169.49984375 -54.76859375 168.9996875 -55.6796875 168.484375 C-69.17815546 161.15757821 -83.78637184 158.13647309 -98.6796875 154.8359375 C-99.54326874 154.64403839 -100.40684998 154.45213928 -101.29660034 154.25442505 C-105.63097123 153.2934134 -109.9674935 152.34565901 -114.31005859 151.42236328 C-122.57831054 149.63868878 -130.67837748 147.62650336 -138.7109375 144.9609375 C-139.77915741 144.60666687 -139.77915741 144.60666687 -140.86895752 144.24523926 C-162.3792484 136.84110729 -182.75162836 124.01423418 -193.3828125 103.37890625 C-203.77166024 81.67273886 -203.27580505 58.2657986 -195.9375 35.73828125 C-187.17955868 12.47499961 -167.04717144 -3.88858189 -145 -14 C-100.80176446 -33.106361 -38.30130477 -31.22388976 0 0 Z " fill="#000000" transform="translate(1518,887)"/>
<path d="M0 0 C0.69399902 0.13921875 1.38799805 0.2784375 2.10302734 0.421875 C23.06952885 4.70540711 41.8308617 14.01303808 58 28 C59.25490234 28.96292969 59.25490234 28.96292969 60.53515625 29.9453125 C82.86443124 48.55893952 93.25811835 79.19847578 97 107 C97 107.99 97 108.98 97 110 C70.93 110 44.86 110 18 110 C17.01 106.535 17.01 106.535 16 103 C12.32501144 90.20435802 6.95931183 80.93817945 -4 73 C-7.89045859 70.91528229 -11.80838499 69.36845593 -16 68 C-17.05380859 67.63261719 -17.05380859 67.63261719 -18.12890625 67.2578125 C-33.03573228 62.99871935 -50.41421581 65.88367445 -63.9375 72.8125 C-78.72627124 81.6377047 -87.769713 95.70138697 -92.15234375 112.21484375 C-99.47482582 141.45381086 -99.29148499 176.63837808 -84.125 203.5 C-74.99418396 217.39677169 -63.71588647 224.37784688 -47.78125 228.5859375 C-36.64709832 230.24354997 -23.45697053 230.39881545 -13 226 C-11.85015625 225.52433594 -10.7003125 225.04867188 -9.515625 224.55859375 C3.13350056 218.97430845 9.72609514 210.69470904 15 198 C15.99 195.03 16.98 192.06 18 189 C44.07 189 70.14 189 97 189 C92.51111921 222.66660595 77.83380043 250.67255746 51 272 C24.53163103 291.15993873 -4.96519322 298.18376969 -37.1875 298.375 C-38.31960403 298.38705475 -38.31960403 298.38705475 -39.47457886 298.39935303 C-74.78387475 298.68434918 -109.5858696 286.72536308 -135.07421875 261.92578125 C-136.05200655 260.95305479 -137.02742531 259.97793877 -138 259 C-138.81082031 258.18917969 -139.62164063 257.37835937 -140.45703125 256.54296875 C-172.33266812 222.88095643 -178.2220591 175.95235647 -177.18359375 131.63037109 C-176.86526563 121.89922977 -175.28663825 112.44870258 -173 103 C-172.81276367 102.21979492 -172.62552734 101.43958984 -172.43261719 100.63574219 C-163.67019158 65.48010368 -143.20032668 34.85163118 -112.07275391 15.82177734 C-78.98289449 -3.87630674 -37.32183252 -7.93826738 0 0 Z " fill="#000000" transform="translate(2533,865)"/>
<path d="M0 0 C176.09040179 0 176.09040179 0 207 29.84375 C221.69384774 44.6783049 229.52837287 63.64477616 233 84 C233.18304687 85.04671875 233.36609375 86.0934375 233.5546875 87.171875 C236.80323853 115.09801539 231.85410683 143.19245245 215 166 C212.16754124 169.52222851 209.19238583 172.80201349 206 176 C205.32710937 176.68449219 204.65421875 177.36898438 203.9609375 178.07421875 C182.72234231 198.31849768 152.57371299 205.21379275 124.09375 205.09765625 C122.92231445 205.09664917 121.75087891 205.09564209 120.54394531 205.09460449 C116.19595349 205.08939883 111.84797569 205.07543768 107.5 205.0625 C97.765 205.041875 88.03 205.02125 78 205 C78 234.04 78 263.08 78 293 C52.26 293 26.52 293 0 293 C0 196.31 0 99.62 0 0 Z M78 62 C78 89.06 78 116.12 78 144 C111.2088867 146.26692077 111.2088867 146.26692077 141 134 C149.18580215 125.37440605 153.08698209 115.20848459 153.4375 103.375 C153.01409655 91.66083791 149.46329486 80.99828255 140.9375 72.75 C123.42709472 58.29239564 99.0760688 62 78 62 Z " fill="#000000" transform="translate(2094,866)"/>
<path d="M0 0 C67.98 0 135.96 0 206 0 C206 20.79 206 41.58 206 63 C163.76 63 121.52 63 78 63 C78 80.16 78 97.32 78 115 C115.95 115 153.9 115 193 115 C193 135.79 193 156.58 193 178 C155.05 178 117.1 178 78 178 C78 215.95 78 253.9 78 293 C52.26 293 26.52 293 0 293 C0 196.31 0 99.62 0 0 Z " fill="#000000" transform="translate(1584,866)"/>
<path d="M0 0 C83.49 0 166.98 0 253 0 C253 20.79 253 41.58 253 63 C223.96 63 194.92 63 165 63 C165 138.9 165 214.8 165 293 C139.59 293 114.18 293 88 293 C88 217.1 88 141.2 88 63 C58.96 63 29.92 63 0 63 C0 42.21 0 21.42 0 0 Z " fill="#000000" transform="translate(1811,866)"/>
<path d="M0 0 C25.74 0 51.48 0 78 0 C78 75.9 78 151.8 78 230 C117.27 230 156.54 230 197 230 C197 250.79 197 271.58 197 293 C131.99 293 66.98 293 0 293 C0 196.31 0 99.62 0 0 Z " fill="#000000" transform="translate(2666,866)"/>
<path d="M0 0 C25.41 0 50.82 0 77 0 C77.06782823 27.3650379 77.12304651 54.7300073 77.15543652 82.09510803 C77.17087824 94.80236835 77.1919161 107.50957257 77.22631836 120.21679688 C77.25630336 131.29773085 77.27559457 142.37862417 77.28226548 153.45959759 C77.28616235 159.32204409 77.29526403 165.18437435 77.31719017 171.04678345 C77.33769929 176.57562221 77.34380488 182.10429789 77.33932304 187.63317108 C77.34014183 189.65183145 77.34602085 191.67049783 77.35761642 193.68912506 C77.51237551 222.04456651 70.96396583 246.59699684 50.8046875 267.25390625 C39.22300865 278.59362803 26.78244583 285.62444989 11.5625 290.8125 C10.75377441 291.0904541 9.94504883 291.3684082 9.11181641 291.65478516 C-4.62515372 296.09329881 -18.02378842 297.53290559 -32.375 297.375 C-33.14102539 297.37001495 -33.90705078 297.36502991 -34.69628906 297.3598938 C-62.39215925 297.14884122 -89.89314495 291.07760553 -110.25 270.90625 C-129.1256798 251.34704976 -134 228.65693109 -134 202 C-108.59 202 -83.18 202 -57 202 C-56.34 205.3 -55.68 208.6 -55 212 C-52.87486644 220.29768059 -50.50961671 227.61106595 -42.9296875 232.2734375 C-34.35517774 236.48600153 -26.0853152 236.79779574 -17 234 C-10.04607977 231.10695685 -6.64195718 226.81090765 -3.8125 220 C-1.3667547 213.76383668 -0.84991227 208.09749928 -0.84178162 201.42631531 C-0.83684364 200.56449719 -0.83190566 199.70267907 -0.82681805 198.81474525 C-0.81146512 195.92817518 -0.80308838 193.04162732 -0.79467773 190.1550293 C-0.78509748 188.0853506 -0.77508731 186.01567385 -0.76467896 183.94599915 C-0.73763982 178.32665221 -0.71662485 172.70729689 -0.69667697 167.0879209 C-0.67481134 161.21556554 -0.64742546 155.34323601 -0.62062073 149.47090149 C-0.57070167 138.3504684 -0.5257599 127.23002098 -0.48259836 116.10955983 C-0.43321928 103.44945003 -0.37830363 90.78936614 -0.32291877 78.1292814 C-0.2091108 52.08621059 -0.10300005 26.04311595 0 0 Z " fill="#000000" transform="translate(3256,866)"/>
<path d="M0 0 C0.84897006 -0.00438225 1.69794012 -0.00876451 2.57263654 -0.01327956 C5.42826362 -0.0266746 8.28385983 -0.03284806 11.13951111 -0.03897095 C13.18281697 -0.04687148 15.22612144 -0.0551404 17.26942444 -0.06375122 C23.99034796 -0.08998133 30.71127773 -0.10528186 37.43223572 -0.11953735 C39.74594565 -0.12489701 42.05965555 -0.13027452 44.3733654 -0.13566971 C53.99923824 -0.15730167 63.6251094 -0.17603752 73.2510004 -0.1872921 C87.04391869 -0.2035247 100.83655496 -0.23668243 114.62936693 -0.29369295 C124.32801729 -0.33241275 134.02659228 -0.35192734 143.7253179 -0.35721266 C149.51718235 -0.36086386 155.30874608 -0.37286065 161.10052681 -0.4053154 C166.55315046 -0.43543084 172.00529199 -0.44169521 177.45798111 -0.42993164 C179.45498516 -0.42971119 181.4520118 -0.43799285 183.44893837 -0.45558548 C197.04454589 -0.56880188 206.03362906 0.60119806 216.59239197 9.8218689 C217.77207947 11.15390015 217.77207947 11.15390015 217.77207947 13.15390015 C218.43207947 13.15390015 219.09207947 13.15390015 219.77207947 13.15390015 C220.97129822 14.3765564 220.97129822 14.3765564 222.45957947 16.21640015 C238.36280034 35.32737019 238.36280034 35.32737019 260.60212368 44.43095362 C261.58852921 44.44364106 262.57493474 44.4563285 263.59123135 44.46940041 C265.3121833 44.49819011 265.3121833 44.49819011 267.06790197 44.52756143 C268.32052819 44.53844662 269.57315442 44.54933182 270.86373901 44.56054688 C272.21787406 44.57885171 273.57199933 44.59789139 274.92611468 44.61759925 C278.65554299 44.66890872 282.38500406 44.70706688 286.11461468 44.74232385 C288.51564532 44.76596328 290.91661084 44.79314248 293.31759059 44.82146192 C335.26687817 45.31457698 377.21929307 45.32332913 419.17091054 45.35569813 C431.80986297 45.36600613 444.44879819 45.38607308 457.08773804 45.40625 C461.83573621 45.41371796 466.58373447 45.42113282 471.33173275 45.42853737 C472.51606862 45.43038793 473.70040448 45.4322385 474.92062931 45.43414515 C488.2323574 45.45483779 501.54408771 45.47379365 514.8558197 45.49179077 C516.0655072 45.49342895 517.27519469 45.49506714 518.52153938 45.49675496 C538.30876055 45.52328187 558.09598355 45.54181508 577.8832152 45.55838268 C598.34333129 45.57578806 618.80341086 45.60457807 639.26349777 45.64327204 C651.81852513 45.66659944 664.37349315 45.68065997 676.92854237 45.68259968 C685.48361524 45.68470505 694.03862834 45.69760023 702.59367437 45.719079 C707.52268132 45.73111352 712.45156956 45.73825453 717.38059044 45.73236656 C721.89013848 45.72707524 726.39944399 45.73553295 730.90895151 45.75492294 C732.53879249 45.75949937 734.16865717 45.75902677 735.79849333 45.75297455 C746.94621822 45.7152685 755.36973328 45.94251638 763.77207947 54.15390015 C767.84976448 59.6642853 768.89841149 63.21321203 768.86973572 70.0093689 C768.86832077 70.6710054 768.86690582 71.33264191 768.865448 72.014328 C768.85985943 74.12339842 768.84730911 76.23236192 768.83457947 78.34140015 C768.82956299 79.77303924 768.82500034 81.20467999 768.82090759 82.63632202 C768.81074547 86.14225554 768.79116808 89.64795842 768.77207947 93.15390015 C763.82207947 93.15390015 758.87207947 93.15390015 753.77207947 93.15390015 C753.67411072 92.06850952 753.57614197 90.9831189 753.47520447 89.86483765 C753.32503271 88.4194345 753.17394214 86.97412661 753.02207947 85.52890015 C752.96020447 84.81604858 752.89832947 84.10319702 752.83457947 83.3687439 C752.18490704 77.4675527 750.2784065 73.35642996 745.70957947 69.34140015 C742.36170242 67.28947551 739.6292134 67.02826247 735.79613894 67.02509898 C734.76030745 67.02182679 733.72447595 67.01855459 732.65725562 67.01518324 C731.51332737 67.01666686 730.36939913 67.01815049 729.19080639 67.01967907 C727.97520176 67.01732684 726.75959712 67.01497461 725.50715598 67.0125511 C722.11182017 67.00701431 718.7165359 67.00599086 715.32119913 67.00682851 C711.6353074 67.00665935 707.94942423 67.0007571 704.26353675 66.99558765 C696.94357083 66.98624794 689.62361095 66.9823373 682.30363981 66.98006868 C673.53980785 66.97711022 664.77598396 66.96841498 656.01215622 66.9596544 C634.82868302 66.93879564 613.64520842 66.92833842 592.46172734 66.91952479 C582.44532815 66.91532081 572.42892956 66.91009852 562.41253088 66.90484026 C528.14124912 66.88694991 493.86996719 66.87195231 459.59868145 66.86452007 C457.4465625 66.86404531 455.29444356 66.86356942 453.14232462 66.86309241 C452.07504412 66.86285604 451.00776362 66.86261966 449.90814128 66.86237612 C444.50056404 66.86117489 439.09298679 66.85995945 433.68540955 66.85873413 C432.61225086 66.85849398 431.53909218 66.85825383 430.43341354 66.8580064 C395.62258408 66.85010978 360.81178865 66.82667053 326.00097406 66.79417819 C289.21707954 66.75990669 252.43320495 66.74017148 215.6492942 66.73687583 C211.61399288 66.73645827 207.57869158 66.73597871 203.54339027 66.73545265 C202.54974912 66.73532946 201.55610796 66.73520627 200.53235647 66.73507934 C184.51917246 66.7327441 168.50602788 66.71706626 152.49285794 66.69661081 C136.40804899 66.67638923 120.32328756 66.6708581 104.23846825 66.68038144 C94.67487006 66.68561054 85.11142973 66.67965269 75.54785416 66.65784677 C69.16548037 66.64439025 62.78321586 66.64536983 56.40084111 66.65824873 C52.76040475 66.66517984 49.12027128 66.66569838 45.47986134 66.64868864 C41.56338906 66.63053745 37.6473667 66.64313683 33.73087597 66.65891552 C32.02551885 66.64358221 32.02551885 66.64358221 30.28571007 66.62793913 C24.1500749 66.68230902 20.39390868 66.96170134 15.77207947 71.15390015 C15.11207947 72.14390015 14.45207947 73.13390015 13.77207947 74.15390015 C12.67895447 74.44265015 11.58582947 74.73140015 10.45957947 75.02890015 C6.16053203 76.34047394 4.56092262 77.66784621 1.77207947 81.15390015 C-0.03836279 84.83944331 -1.23162518 88.16871875 -2.22792053 92.15390015 C-11.46792053 92.15390015 -20.70792053 92.15390015 -30.22792053 92.15390015 C-30.31862916 83.46052462 -30.39186998 74.76746824 -30.43516922 66.07372475 C-30.45596057 62.0359793 -30.48412126 57.99857705 -30.52967834 53.96102905 C-30.57344099 50.05766853 -30.59712105 46.15463615 -30.6074295 42.25104904 C-30.61476678 40.76882138 -30.62909354 39.28660975 -30.65084076 37.80452347 C-30.816746 26.01916666 -29.45554847 16.73784024 -21.16542053 7.91171265 C-14.58481325 1.94140362 -8.80345238 0.00549363 0 0 Z " fill="#FBB947" transform="translate(402.22792053222656,698.8460998535156)"/>
<path d="M0 0 C25.74 0 51.48 0 78 0 C78 96.69 78 193.38 78 293 C52.26 293 26.52 293 0 293 C0 196.31 0 99.62 0 0 Z " fill="#000000" transform="translate(2895,866)"/>
<path d="M0 0 C1.0358315 -0.00526326 2.07166299 -0.01052652 3.13888332 -0.01594928 C4.28281157 -0.01155279 5.42673981 -0.00715631 6.60533255 -0.0026266 C7.82093719 -0.00583308 9.03654182 -0.00903955 10.28898296 -0.0123432 C13.68437819 -0.01924773 17.07955639 -0.01711864 20.47493982 -0.01128747 C24.16083581 -0.00713431 27.84671113 -0.01450935 31.53260219 -0.02043998 C37.99969305 -0.02922564 44.46675226 -0.03050573 50.93384761 -0.02693671 C60.5505707 -0.02164342 70.16726298 -0.02771114 79.78398272 -0.03601964 C97.95662301 -0.05128759 116.1292494 -0.05296182 134.30189476 -0.05049662 C148.33257255 -0.04866625 162.36324577 -0.05041816 176.39392298 -0.05472106 C178.40740372 -0.05532345 180.42088445 -0.05592465 182.43436518 -0.05652466 C185.46824219 -0.05743188 188.5021192 -0.05834055 191.53599621 -0.05925701 C219.75648352 -0.0676909 247.9769691 -0.07201926 276.19745749 -0.06785029 C277.79439824 -0.06761573 277.79439824 -0.06761573 279.42360043 -0.06737643 C284.81993911 -0.0665706 290.21627778 -0.06572483 295.61261646 -0.06486312 C297.22030058 -0.06460649 297.22030058 -0.06460649 298.86046317 -0.06434468 C301.02788392 -0.06399802 303.19530466 -0.06364949 305.36272541 -0.06329909 C339.09058603 -0.05794143 372.81842052 -0.06587179 406.54627627 -0.08433264 C444.41313583 -0.10503454 482.2799792 -0.11577878 520.14684474 -0.11175716 C524.18214605 -0.11136179 528.21744736 -0.11100025 532.25274867 -0.11065978 C533.24638982 -0.11056905 534.24003098 -0.11047831 535.26378248 -0.11038483 C550.28436391 -0.10921733 565.30492903 -0.11587882 580.32550639 -0.1264717 C597.40290632 -0.13850259 614.48027024 -0.14010713 631.55767069 -0.12768153 C641.12123967 -0.12103504 650.68472262 -0.12272504 660.24828478 -0.13627005 C666.63064583 -0.14448298 673.01294211 -0.14185831 679.39529784 -0.13029478 C683.03568372 -0.12400681 686.67590113 -0.12251814 690.3162776 -0.13415811 C694.23269189 -0.14656593 698.14884613 -0.13591714 702.06526297 -0.12288111 C703.20216772 -0.13019046 704.33907247 -0.13749981 705.51042888 -0.14503065 C711.88262807 -0.10072491 716.78483713 0.22806187 721.66859072 4.78700525 C727.94221805 12.99097944 726.02405947 12.32079635 726.02405947 26.251849 C477.20405947 26.251849 228.38405947 26.251849 -27.97594053 26.251849 C-27.97594053 16.88342794 -27.97594053 16.88342794 -23.97594053 12.251849 C-21.1059643 9.99250601 -19.03288952 8.4323037 -15.41344053 7.814349 C-11.90151358 7.00390432 -10.38256126 4.84846611 -7.97594053 2.251849 C-4.70402553 0.07057234 -3.78723817 0.00151956 0 0 Z " fill="#FEFEFE" transform="translate(428.97594052553177,764.7481510043144)"/>
<path d="M0 0 C4.43228254 4.03883717 7.38760018 8.46169506 10.5 13.5625 C11.55996181 15.27029907 12.62120257 16.97730489 13.68359375 18.68359375 C14.22870605 19.56128418 14.77381836 20.43897461 15.33544922 21.34326172 C18.02601913 25.63759756 20.79229604 29.88175762 23.5625 34.125 C24.65494933 35.80078033 25.74739726 37.47656157 26.83984375 39.15234375 C27.3694873 39.96429199 27.89913086 40.77624023 28.44482422 41.61279297 C30.84632762 45.29911953 33.23624527 48.99290412 35.625 52.6875 C36.0674707 53.37150879 36.50994141 54.05551758 36.96582031 54.76025391 C39.28482433 58.3456343 41.6019948 61.93219291 43.91796875 65.51953125 C44.88280128 67.01302808 45.84764484 68.50651779 46.8125 70 C47.27132568 70.71124023 47.73015137 71.42248047 48.20288086 72.15527344 C51.09360038 76.62788679 54.03551989 81.05957933 57.07421875 85.43359375 C58 87 58 87 58 89 C45.13 89 32.26 89 19 89 C19 149.39 19 209.78 19 272 C7.12 272 -4.76 272 -17 272 C-17 211.61 -17 151.22 -17 89 C-30.2 89 -43.4 89 -57 89 C-55.48329506 85.20823764 -54.17633456 82.50730755 -51.98046875 79.18359375 C-51.07530518 77.80554565 -51.07530518 77.80554565 -50.15185547 76.3996582 C-49.50361816 75.422146 -48.85538086 74.44463379 -48.1875 73.4375 C-46.81882297 71.35689413 -45.45033669 69.27616276 -44.08203125 67.1953125 C-43.39447754 66.1527832 -42.70692383 65.11025391 -41.99853516 64.03613281 C-39.1051071 59.64049742 -36.23896888 55.22736251 -33.375 50.8125 C-32.31260273 49.17701659 -31.25010284 47.54159985 -30.1875 45.90625 C-29.66414062 45.10058594 -29.14078125 44.29492188 -28.6015625 43.46484375 C-26.9641913 40.94488954 -25.32596822 38.42549105 -23.6875 35.90625 C-23.13900391 35.06280029 -22.59050781 34.21935059 -22.02539062 33.3503418 C-20.93566483 31.67464659 -19.84582338 29.99902659 -18.75585938 28.32348633 C-16.11096399 24.25562753 -13.47174589 20.18426911 -10.84375 16.10546875 C-10.34311035 15.32905029 -9.8424707 14.55263184 -9.32666016 13.75268555 C-8.38753504 12.29535163 -7.44962692 10.83723244 -6.51318359 9.37817383 C-4.4423219 6.16527527 -2.35452798 3.01625806 0 0 Z " fill="#010100" transform="translate(770,875)"/>
<path d="M0 0 C1.04032608 -0.00751056 2.08065217 -0.01502111 3.15250328 -0.02275926 C4.86051461 -0.01222401 4.86051461 -0.01222401 6.60303122 -0.00147593 C8.4298997 -0.00801641 8.4298997 -0.00801641 10.29367462 -0.01468903 C13.68631813 -0.0237759 17.07846576 -0.01936504 20.47107521 -0.00935517 C24.15736284 -0.00176307 27.84361055 -0.01151765 31.52989256 -0.01908517 C37.99457277 -0.02993743 44.45917786 -0.02958103 50.92386156 -0.02194369 C60.53695595 -0.01061759 70.14998673 -0.01638634 79.76308066 -0.02556861 C96.93020072 -0.04138532 114.09728734 -0.03998887 131.2644106 -0.03133187 C146.28803748 -0.02379276 161.31165209 -0.02181157 176.33528048 -0.0253998 C177.33084937 -0.02562896 178.32641825 -0.02585811 179.3521559 -0.02609421 C183.393247 -0.02702819 187.4343381 -0.02798339 191.4754292 -0.02897351 C229.40479196 -0.03815601 267.33413339 -0.02982152 305.26349286 -0.01368281 C338.97825419 0.00055351 372.69298153 -0.00071833 406.40774256 -0.01506579 C444.26509649 -0.0311222 482.12243156 -0.03750376 519.97978842 -0.028229 C524.01393518 -0.02726681 528.04808195 -0.02632829 532.08222872 -0.0253998 C533.57225095 -0.02504396 533.57225095 -0.02504396 535.09237465 -0.02468092 C550.10766824 -0.0212653 565.12294821 -0.02526531 580.13823992 -0.03283846 C597.20827451 -0.0414049 614.27827035 -0.03929606 631.34830009 -0.02299623 C640.90743346 -0.01417006 650.46648297 -0.01363721 660.0256142 -0.02493476 C666.40495169 -0.03164413 672.78422171 -0.02750753 679.16354918 -0.01442045 C682.80216954 -0.00726077 686.44062287 -0.00489211 690.07923817 -0.0156384 C693.9937328 -0.02708195 697.90796167 -0.01547373 701.8224526 -0.00147593 C702.95878566 -0.00849943 704.09511871 -0.01552293 705.2658861 -0.02275926 C711.63612038 0.02311976 716.53804741 0.35376074 721.42019373 4.91120374 C725.29967635 9.98437332 725.91340688 12.72682227 725.83816248 19.00104749 C725.83365076 19.70745374 725.82913904 20.41385999 725.82449061 21.14167249 C725.81270123 22.88650024 725.79476573 24.63128449 725.77566248 26.37604749 C721.48566248 26.37604749 717.19566248 26.37604749 712.77566248 26.37604749 C712.31993332 23.90208916 711.86420415 21.42813083 711.40847498 18.95417249 C710.5729495 15.55017977 709.89398901 13.06147343 706.83816248 11.18854749 C703.0300752 9.6883919 700.1336627 9.24847243 696.05508143 9.2401756 C694.85345187 9.23531772 693.65182231 9.23045984 692.41377974 9.22545475 C691.07151671 9.22506925 689.72925367 9.22477373 688.38699061 9.22455823 C686.96348236 9.22070879 685.53997524 9.21642246 684.1164695 9.2117365 C680.18234297 9.20005777 676.24822804 9.19460417 672.31408764 9.19010346 C668.05195183 9.18413809 663.7898314 9.17242527 659.52770621 9.16140306 C652.07079078 9.14290359 644.61387501 9.1280564 637.1569472 9.11556661 C626.13771255 9.09707362 615.11849622 9.07278361 604.09927615 9.04714707 C585.72091417 9.00451235 567.34254574 8.96616026 548.96416956 8.93021619 C521.80488637 8.87702179 494.64562074 8.81696328 467.48635584 8.75519788 C465.20558566 8.75001779 462.92481548 8.74483826 460.64404529 8.73965931 C451.48139908 8.71884583 442.31875291 8.69801217 433.15610695 8.67708725 C421.60369913 8.65071866 410.05129087 8.6245717 398.4988814 8.59893453 C334.38401911 8.45664517 270.26927257 8.29268979 206.15456873 8.09089124 C205.21991154 8.08794988 204.28525435 8.08500852 203.32227421 8.08197802 C178.23687725 8.00296 153.15148872 7.92142271 128.06610302 7.83892011 C119.44908611 7.81059483 110.83206833 7.78253862 102.21505045 7.75451029 C64.06858081 7.63042449 25.92211731 7.50461518 -12.22433752 7.37604749 C-10.08023753 1.72342024 -5.78579713 0.00131399 0 0 Z " fill="#E3E2E2" transform="translate(429.2243375182152,764.6239525079727)"/>
<path d="M0 0 C9.35154146 6.96658458 16.10982263 15.82779628 18.390625 27.421875 C19.36880911 38.44867766 17.77800427 48.27316373 11.078125 57.296875 C3.30252112 66.44561744 -5.77559235 72.47183159 -17.9140625 73.64453125 C-29.45181346 74.06844223 -39.65097169 70.71294142 -48.609375 63.421875 C-57.51496138 54.35075728 -60.91138683 44.15293078 -60.92407227 31.70288086 C-60.72321492 21.16916114 -56.86879269 13.02273769 -49.609375 5.421875 C-36.16854368 -7.09682028 -15.86327837 -9.59395878 0 0 Z " fill="#000000" transform="translate(3075.609375,1090.578125)"/>
</svg>
